<?xml version="1.0" encoding="UTF-8"?>
<svg id="Layer_2" data-name="Layer 2" xmlns="http://www.w3.org/2000/svg" viewBox="0 0 946.52 484.8">
  <defs>
    <style>
      .cls-1 {
        fill: #fff;
      }
    </style>
  </defs>
  <g id="Layer_1-2" data-name="Layer 1">
    <g>
      <path class="cls-1" d="m803.65,145.57c8.61,4.09,19.43-1.55,24.41-12.33,4.73-10.83,1.67-23.02-6.95-27.1-8.61-4.09-19.14,1.34-24.37,12.08-4.77,11.08-1.71,23.27,6.9,27.35Z"/>
      <path class="cls-1" d="m658.96,246.63c-9.6,26.1-.9,68.69,40.19,68.69,31.19,0,52.49-26.99,50.69-52.49-2.4-33.29-29.99-51.89-34.49-72.29-3.9-17.7,5.1-28.79,15.6-27.89,9.9.9,10.2,13.2,8.1,24-4.2,22.2,31.49,21.6,27-5.4-3-17.7-17.1-27-37.49-27.3-20.4-.3-44.69,16.5-39.89,49.19,4.2,28.79,37.19,50.09,33.29,78.29-2.4,16.2-11.1,22.5-22.5,22.5-20.4,0-30-20.4-14.4-46.49,13.8-22.8-17.7-33.59-26.09-10.8Z"/>
      <path class="cls-1" d="m946.49,162.08c.16-.63-.32-1.24-.97-1.24h-26.56c-.4,0-.76.23-.92.6-.73,1.74-1.78,5.15-3.13,9.76-.29.97-1.66.95-1.93-.03-2.38-8.61-7.7-14.83-17.16-14.83-17.1,0-48.89,26.1-64.49,78.29-.42,1.41-.81,2.79-1.19,4.16,0,.02-.01.04-.02.05-14.12,41.72-25.16,53.08-34.78,53.08-7.2,0-5.4-6-2.4-16.5,2.1-6.9,24.9-95.38,26.4-100.48,2.4-9,0-14.1-9.3-14.1h-23.81c-.84,0-1.29.96-.78,1.62,4.23,5.47,2.84,13.84-1.51,26.88-2.4,6.9-19.5,69.59-21.6,76.49-7.2,23.7,0,47.39,18.6,47.39s31.86-12.57,41.8-29.73c.49-.85,1.77-.56,1.85.42,1.78,20.71,11.35,31.7,24.13,31.7s25.34-11.01,34.98-26.69c.5-.82,1.74-.52,1.84.43.71,6.71,2.92,13.74,7.85,18.57,8.39,8.22,34.88,8.44,34.45-7.64-.15-5.52-3.83-7.64-8.73-8.54-7.06-1.3-3.52-12.04-2.3-16.33,1.77-6.18,24.01-91.11,29.68-113.34Zm-38.97,34.11s-.01.05-.02.08c-7.18,25.45-15.86,56.55-18.57,66.5,0,.04-.02.07-.03.1-4.5,11.68-11.39,23.34-20.38,23.34-10.8,0-16.5-17.7-7.2-50.99,10.2-36.29,29.09-58.49,38.69-58.49,8.69,0,9.3,11.06,7.51,19.46Z"/>
      <path class="cls-1" d="m257.24,163.37c-.73-.3-.86-1.27-.21-1.74,41.07-29.61,64.37-82.51,30-123.11C229.14-29.87,77.97-3.17,33.57,86.81c-18.9,38.09,1.5,93.58,48.29,74.99,24.9-9.9,8.4-47.39-15.3-27.6-24.9,20.7-34.79-15.3-21.9-42.29C80.45,16.48,202.48-10.65,257.25,54.73c.46.55.2,1.4-.5,1.61-7.33,2.2-14.78,6.09-20.12,9.18-87.7,52.08-110.58,160.61-172.97,234.09-.24.29-.63.41-.99.33-15.1-3.48-30.21-4.29-45.9,1.04-12.55,4.18-23.91,22.06-11.25,32.27.1.08.21.14.33.18,24.36,8.53,47.54-.28,68.96-17.11.28-.22.65-.27.97-.15,10.9,4.15,21.2,8.84,29.17,11.5,44.99,16.8,97.18,26.7,141.57,4.8,87.1-42.8,73.44-143.65,10.71-169.1ZM52,310.42c-11.18,8.9-25.46,17.39-37.82,12.3-.55-.23-.77-.9-.47-1.42,8.14-14.05,22.24-15.64,37.85-12.66.85.16,1.11,1.24.44,1.77Zm131.47-145.27c19.67-41.05,38.36-85.52,79.85-100.83h.3c15.83,32.26,1.91,71.96-25.46,93.91-.22.17-.49.25-.76.21-15.74-2.2-33.37.23-52.65,8.05-.85.35-1.68-.52-1.28-1.35Zm29.4,6.6c-5.34,1.59-10.86,2.59-16.52,2.89-1.15.06-1.47-1.59-.37-1.95,5.67-1.88,11.21-2.76,16.57-2.91,1.18-.03,1.46,1.63.33,1.97Zm59.45,74.34c-7.8,54.89-62.69,88.78-120.28,82.78-22.58-2.35-44.01-12.72-65.42-21.03-.68-.27-.85-1.14-.32-1.64,31.28-29.7,57.25-73.92,73.84-99.71,5.18-7.49,10.09-15.53,14.46-24.12.28-.55.96-.71,1.47-.36,2.51,1.72,6.52,2.88,12.87,2.88,15.75.3,31.5-3.53,46.38-10.31.26-.12.57-.12.83,0,24.37,10.94,40.65,39.89,36.18,71.5Z"/>
      <path class="cls-1" d="m788.24,333.91c-25.79-7.8-34.49,12.3-23.4,21,11.7,9.3,24.59-3,35.09,7.5,9.6,9.6-8.7,29.39-49.79,22.2-80.53-14.02-119.53-96.84-122.63-148.79-.03-.51.33-.94.83-1.03,18.65-3.26,38.53-16.29,45.61-31.35,11.4-24.6,2.1-47.39-20.4-47.39-13.73,0-28.47,9.31-40.99,26.54-.65.9-2.07.22-1.77-.85l3.1-11.06c.04-.15.11-.28.22-.39,18.31-20.43,48.45-56.59,52.34-83.21,6.1-40.26-24.71-50.35-43.53-26.72-6.11,7.38-6.18,11.91-25.08,19.5-60.61,24.38-125.4-41.45-208.66-29.61-35.01,4.88-56.78,27-62,45.98-8.71,32.22,32.57,37.8,44.59,9.75,7.84-18.64-19.16-24.38-19.86-4.18-.35,9.93-12.89,14.11-16.9,3.48-5.57-15.15,15.68-37.1,36.23-39.88,34.14-4.7,66.71,6.1,99.45,14.63,41.8,10.8,87.43,21.42,129.76,6.79,4.29-1.5,8.29-3.13,12.01-4.84-2.01,7.63-27.48,93.57-45.22,153.27h-.07c-16.8,44.69-27.3,56.09-35.69,56.09-7.2,0-8.1-5.4-5.7-13.5,2.7-9.6,16.2-43.79,25.5-74.39,9.6-30.89-2.7-47.39-21.6-47.39-13.67,0-27.06,9.19-38.65,26.54-.53.8-1.77.46-1.82-.5-.63-13.29-9.97-21.24-21.62-21.24h-4.83c-.8,0-1.29.91-.83,1.56,4.75,6.68,2.66,13.58-1.24,26.94-1.65,5.86-8.21,27.64-15.66,52.27-13.66,39.45-24.28,50.31-30.84,50.31-7.2,0-7.2-6-4.2-16.5,1.77-6.18,24.01-91.11,29.68-113.34.16-.63-.32-1.24-.97-1.24h-26.56c-.4,0-.76.23-.92.6-.73,1.74-1.78,5.15-3.13,9.76-.29.97-1.66.95-1.93-.03-2.38-8.61-7.7-14.83-17.16-14.83-17.1,0-48.89,26.1-64.49,78.29-15.6,52.19-3.3,80.98,17.4,80.98,13.34,0,25.34-11.01,34.98-26.69.5-.82,1.74-.52,1.84.43,1.45,13.73,8.79,23.85,21.07,23.85,9.56,0,17.79-4.08,24.88-10.76.74-.7,1.93.04,1.64,1.02-.64,2.12-1.25,4.15-1.83,6.06-.19.64.29,1.28.96,1.28h20.55c9.6,0,14.4-7.2,16.5-16.5,1.5-6.3,10.19-35.07,17.69-62.96,0-.02.01-.04.02-.06,12-35.68,27.29-58.76,39.88-58.76,6.9,0,9.6,7.2,5.1,21.3-5.1,16.5-21.6,48.29-30.59,76.79-7.5,23.4.6,44.99,19.2,44.99,13.19,0,23.92-7.2,32.81-18.09.71-.87,2.09-.1,1.72.96-1.8,5.2-3.55,8.49-5.9,10.61-.67.6-.21,1.73.69,1.73h23.76c9.6,0,14.4-7.2,16.5-16.5,1.19-5.06,7.11-25.5,13.66-48.1.09-.31.32-.55.62-.66,4.33-1.55,8.44-3.3,12.34-4.68.71-.25,1.42.35,1.31,1.1-8.78,57.2,35.3,152.95,121.75,165.13,31.19,4.5,69.59-6.9,77.08-37.19,3-12.6-1.2-29.69-21.9-35.99Zm-135.57-247.16c-4.2,17.62-15.69,39.93-30.11,59.65-.66.9-2.07.21-1.77-.86l15.69-56.99c11.1-40.49,23.7-32.69,16.2-1.8Zm-251.95,109.44s-.01.05-.02.08c-7.18,25.45-15.86,56.55-18.57,66.5,0,.04-.02.07-.03.1-4.5,11.68-11.39,23.34-20.38,23.34-10.8,0-16.5-17.7-7.2-50.99,10.2-36.29,29.09-58.49,38.69-58.49,8.68,0,9.3,11.06,7.51,19.46Zm206.1,38.42s-.06.02-.08.02c-1.84.46-3.51.74-5.27.98-.73.1-1.32-.59-1.09-1.29.41-1.28.78-2.55.99-3.83,0-.05.02-.09.03-.13,11.99-35.06,26.98-57.82,39.57-57.82,6.9,0,8.1,10.5,3.6,24.9-4.5,14.09-15.58,30.27-37.75,37.18Z"/>
      <path class="cls-1" d="m157.29,460.82c2.03,0,3.77.51,5.23,1.52s2.44,2.27,2.93,3.73l5.37-1.31c-.72-2.46-2.29-4.59-4.67-6.39s-5.35-2.7-8.89-2.7c-4.16,0-7.64,1.39-10.43,4.16s-4.18,6.23-4.18,10.35,1.39,7.64,4.18,10.43,6.29,4.18,10.51,4.18l.06-.02c3.46,0,6.39-.88,8.77-2.66s3.93-3.89,4.61-6.33l-5.31-1.37c-.49,1.46-1.46,2.7-2.93,3.69s-3.22,1.5-5.25,1.5c-2.68,0-4.84-.92-6.52-2.77s-2.52-4.08-2.52-6.7.84-4.8,2.5-6.62,3.85-2.71,6.54-2.71Z"/>
      <path class="cls-1" d="m190.13,456.21l-10.72,28.01h5.68l2.32-6.07h12.6l2.29,6.07h5.72l-10.76-28.01h-7.13Zm-.92,17.09l4.47-11.84,4.49,11.84h-8.96Z"/>
      <polygon class="cls-1" points="218.72 484.21 224.2 484.21 224.2 473.1 237.04 473.1 237.04 468.18 224.2 468.18 224.2 461.21 239.09 461.21 239.09 456.21 218.72 456.21 218.72 484.21"/>
      <polygon class="cls-1" points="250.31 484.21 270.91 484.21 270.91 479.25 255.68 479.25 255.68 472.38 268.9 472.38 268.9 467.57 255.68 467.57 255.68 461.17 270.95 461.17 270.95 456.21 250.31 456.21 250.31 484.21"/>
      <path class="cls-1" d="m324.14,471.42l-4.65-1.33c-.33,1.5-.88,2.93-1.64,4.28l-6.99-7.48c-1.27-1.31-1.89-2.44-1.89-3.4s.33-1.7,1-2.29,1.5-.88,2.52-.88c1.99,0,3.26,1.07,3.79,3.24l4.73-1.35c-.29-1.82-1.21-3.36-2.73-4.63s-3.42-1.91-5.66-1.91c-2.64,0-4.77.68-6.39,2.05s-2.42,3.26-2.42,5.68c0,1.68.72,3.38,2.17,5.08-1.7,1-2.99,2.21-3.85,3.61s-1.29,2.91-1.29,4.49c0,2.42.86,4.39,2.6,5.92s3.87,2.29,6.39,2.29c3.12,0,5.92-1.07,8.36-3.2l2.48,2.64,6.41-.02-5.76-6.15c1.45-2.19,2.4-4.39,2.85-6.64Zm-13.75,8.59l-.02-.02c-1.27,0-2.3-.37-3.09-1.11s-1.17-1.64-1.17-2.68c-.02-1.68.96-3.12,2.91-4.32l5.94,6.29c-1.5,1.23-3.03,1.84-4.57,1.84Z"/>
      <path class="cls-1" d="m369.11,460.82c2.03,0,3.77.51,5.23,1.52s2.44,2.27,2.93,3.73l5.37-1.31c-.72-2.46-2.29-4.59-4.67-6.39s-5.35-2.7-8.89-2.7c-4.16,0-7.64,1.39-10.43,4.16s-4.18,6.23-4.18,10.35,1.39,7.64,4.18,10.43,6.29,4.18,10.51,4.18l.06-.02c3.46,0,6.39-.88,8.77-2.66s3.93-3.89,4.61-6.33l-5.31-1.37c-.49,1.46-1.46,2.7-2.93,3.69s-3.22,1.5-5.25,1.5c-2.68,0-4.84-.92-6.52-2.77s-2.52-4.08-2.52-6.7.84-4.8,2.5-6.62,3.85-2.71,6.54-2.71Z"/>
      <polygon class="cls-1" points="412.75 467.5 399.96 467.5 399.96 456.21 394.47 456.21 394.47 484.21 399.96 484.21 399.96 472.46 412.75 472.46 412.75 484.21 418.28 484.21 418.28 456.21 412.75 456.21 412.75 467.5"/>
      <path class="cls-1" d="m445.01,455.66c-4.22,0-7.73,1.39-10.53,4.16s-4.2,6.23-4.2,10.35,1.41,7.64,4.2,10.43,6.29,4.18,10.51,4.18h.02c4.22,0,7.71-1.39,10.51-4.18s4.18-6.27,4.18-10.43-1.39-7.58-4.18-10.35-6.29-4.16-10.51-4.16Zm6.58,21.33c-1.7,1.82-3.91,2.73-6.62,2.73v-.02c-2.71,0-4.92-.9-6.62-2.71s-2.54-4.08-2.54-6.8.84-4.92,2.54-6.74,3.91-2.71,6.62-2.71,4.92.9,6.62,2.71,2.54,4.06,2.54,6.74-.84,4.98-2.54,6.8Z"/>
      <path class="cls-1" d="m485.16,460.82c2.03,0,3.77.51,5.23,1.52s2.44,2.27,2.93,3.73l5.37-1.31c-.72-2.46-2.29-4.59-4.67-6.39s-5.35-2.7-8.89-2.7c-4.16,0-7.64,1.39-10.43,4.16s-4.18,6.23-4.18,10.35,1.39,7.64,4.18,10.43,6.29,4.18,10.51,4.18l.06-.02c3.46,0,6.39-.88,8.77-2.66s3.93-3.89,4.61-6.33l-5.31-1.37c-.49,1.46-1.46,2.7-2.93,3.69s-3.22,1.5-5.25,1.5c-2.68,0-4.84-.92-6.52-2.77s-2.52-4.08-2.52-6.7.84-4.8,2.5-6.62,3.85-2.71,6.54-2.71Z"/>
      <path class="cls-1" d="m524.07,455.66c-4.22,0-7.73,1.39-10.53,4.16s-4.2,6.23-4.2,10.35,1.41,7.64,4.2,10.43,6.29,4.18,10.51,4.18h.02c4.22,0,7.71-1.39,10.51-4.18s4.18-6.27,4.18-10.43-1.39-7.58-4.18-10.35-6.29-4.16-10.51-4.16Zm6.58,21.33c-1.7,1.82-3.91,2.73-6.62,2.73v-.02c-2.71,0-4.92-.9-6.62-2.71s-2.54-4.08-2.54-6.8.84-4.92,2.54-6.74,3.91-2.71,6.62-2.71,4.92.9,6.62,2.71,2.54,4.06,2.54,6.74-.84,4.98-2.54,6.8Z"/>
      <polygon class="cls-1" points="556.27 456.21 550.79 456.21 550.79 484.21 570.22 484.21 570.22 479.18 556.27 479.18 556.27 456.21"/>
      <path class="cls-1" d="m590.41,456.21l-10.72,28.01h5.68l2.32-6.07h12.6l2.29,6.07h5.72l-10.76-28.01h-7.13Zm-.92,17.09l4.47-11.84,4.49,11.84h-8.96Z"/>
      <polygon class="cls-1" points="613.6 461.17 623 461.17 623 484.21 628.49 484.21 628.49 461.17 637.88 461.17 637.88 456.21 613.6 456.21 613.6 461.17"/>
      <polygon class="cls-1" points="649.06 484.21 669.67 484.21 669.67 479.25 654.43 479.25 654.43 472.38 667.66 472.38 667.66 467.57 654.43 467.57 654.43 461.17 669.71 461.17 669.71 456.21 649.06 456.21 649.06 484.21"/>
      <path class="cls-1" d="m719.01,469.53h.04c2.32-1.25,3.48-3.2,3.48-5.84-.02-2.21-.88-4-2.58-5.39s-3.93-2.07-6.68-2.07h-13.36v28.01h14.12c2.95,0,5.27-.72,6.97-2.15s2.54-3.36,2.54-5.78c0-1.54-.39-2.89-1.19-4.06s-1.91-2.07-3.34-2.71Zm-13.75-8.57l7.95-.02c1.15-.02,2.09.29,2.81.94s1.07,1.46,1.07,2.46c.02,1-.33,1.84-1.04,2.52s-1.62,1.02-2.73,1.02h-8.07v-6.91Zm11.74,17.48c-.74.68-1.74,1.04-2.99,1.04h-8.75v-7.27h8.75c1.25,0,2.25.33,2.99,1.02s1.11,1.54,1.11,2.58-.37,1.95-1.11,2.64Z"/>
      <path class="cls-1" d="m743.49,456.21l-10.72,28.01h5.68l2.32-6.07h12.6l2.29,6.07h5.72l-10.76-28.01h-7.13Zm-.92,17.09l4.47-11.84,4.49,11.84h-8.96Z"/>
      <path class="cls-1" d="m793.7,470.5c1.07-1.56,1.62-3.28,1.62-5.18,0-2.36-.88-4.47-2.64-6.33s-4.08-2.77-6.95-2.77h-13.63v28.01h5.45v-9.8h5.96l6.33,9.79h6.33l-6.95-10.35c1.91-.68,3.42-1.8,4.49-3.36Zm-8.34-.88h-7.83l.02-8.48h8.03c1.29,0,2.34.41,3.18,1.23s1.25,1.82,1.25,2.97c0,1.21-.43,2.23-1.29,3.05s-1.97,1.23-3.36,1.23Z"/>
    </g>
  </g>
</svg>
